<svg xmlns="http://www.w3.org/2000/svg" viewBox="0 0 512 512">
  <rect width="512" height="512" fill="#ffffff"/>
  <g transform="translate(256 256) scale(2.0) translate(-102 -52)">
    <path d="M46.6582 101.001C39.672 101.001 33.6837 100.253 28.6936 98.7556C23.8032 97.2586 20.0106 94.6138 17.3159 90.8213C14.7211 86.9289 13.4236 81.3399 13.4236 74.0543V45.7599H2.49512V22.1065H13.4236V2.49509H39.9215V22.1065H54.4429V45.7599H39.9215V70.0122C39.9215 71.9085 40.2209 73.6051 40.8197 75.1022C41.5183 76.4994 43.4146 77.1981 46.5085 77.1981H53.5447V101.001H46.6582Z" fill="#000000"/>
    <path d="M63.0147 101.001V22.1065H86.219L88.0155 29.5918C90.0116 26.6975 92.2072 24.6016 94.6025 23.3041C96.9978 22.0067 99.3931 21.2083 101.788 20.9089C104.184 20.6094 106.379 20.4597 108.375 20.4597C110.072 20.4597 111.619 20.5096 113.016 20.6094C114.414 20.6094 115.312 20.6593 115.711 20.7591V46.3588H110.621C106.928 46.3588 103.435 46.8578 100.142 47.8558C96.9479 48.7541 94.353 50.5505 92.3569 53.2452C90.4607 55.8401 89.5125 59.7823 89.5125 65.0719V101.001H63.0147Z" fill="#000000"/>
    <path d="M160.845 102.199C153.06 102.199 146.024 100.652 139.736 97.558C133.549 94.4641 128.608 89.923 124.916 83.9348C121.223 77.8468 119.376 70.4613 119.376 61.7784C119.376 52.8959 121.223 45.4106 124.916 39.3226C128.708 33.1348 133.698 28.444 139.886 25.2503C146.074 22.0566 152.91 20.4597 160.396 20.4597C168.081 20.4597 174.967 22.1065 181.055 25.4C187.243 28.6935 192.133 33.4342 195.726 39.622C199.419 45.8098 201.265 53.345 201.265 62.2275C201.265 70.8106 199.519 78.0963 196.026 84.0845C192.532 90.0727 187.742 94.6138 181.654 97.7077C175.566 100.702 168.629 102.199 160.845 102.199Z" fill="#DB2D2E"/>
  </g>
</svg>
