<svg width="201" height="102" viewBox="0 0 201 102" fill="none" xmlns="http://www.w3.org/2000/svg">
<g filter="url(#filter0_g_6_329)">
<path d="M45.1631 99.5061C38.1768 99.5061 32.1886 98.7576 27.1984 97.2606C22.3081 95.7635 18.5155 93.1187 15.8208 89.3262C13.2259 85.4338 11.9285 79.8448 11.9285 72.5592V44.2649H1V20.6114H11.9285V1H38.4263V20.6114H52.9478V44.2649H38.4263V68.5171C38.4263 70.4134 38.7258 72.1101 39.3246 73.6071C40.0232 75.0044 41.9195 75.703 45.0134 75.703H52.0495V99.5061H45.1631Z" fill="black" style="fill:black;fill-opacity:1;"/>
<path d="M61.5196 99.5061V20.6114H84.7239L86.5204 28.0967C88.5164 25.2024 90.7121 23.1065 93.1074 21.809C95.5027 20.5116 97.898 19.7132 100.293 19.4138C102.689 19.1144 104.884 18.9646 106.88 18.9646C108.577 18.9646 110.124 19.0145 111.521 19.1144C112.918 19.1144 113.817 19.1643 114.216 19.2641V44.8637H109.126C105.433 44.8637 101.94 45.3627 98.6465 46.3607C95.4528 47.259 92.8579 49.0554 90.8618 51.7501C88.9655 54.345 88.0174 58.2873 88.0174 63.5769V99.5061H61.5196Z" fill="black" style="fill:black;fill-opacity:1;"/>
<path d="M159.35 100.704C151.565 100.704 144.529 99.1568 138.241 96.0629C132.053 92.969 127.113 88.4279 123.42 82.4397C119.728 76.3517 117.881 68.9662 117.881 60.2833C117.881 51.4008 119.728 43.9155 123.42 37.8275C127.213 31.6397 132.203 26.9489 138.391 23.7552C144.579 20.5615 151.415 18.9646 158.901 18.9646C166.585 18.9646 173.472 20.6114 179.56 23.9049C185.748 27.1984 190.638 31.9391 194.231 38.1269C197.924 44.3148 199.77 51.8499 199.77 60.7324C199.77 69.3156 198.024 76.6012 194.53 82.5894C191.037 88.5776 186.247 93.1187 180.159 96.2126C174.071 99.2067 167.134 100.704 159.35 100.704Z" fill="#DB2D2E" style="fill:#DB2D2E;fill:color(display-p3 0.8588 0.1765 0.1804);fill-opacity:1;"/>
</g>
<defs>
<filter id="filter0_g_6_329" x="0" y="0" width="200.771" height="101.704" filterUnits="userSpaceOnUse" color-interpolation-filters="sRGB">
<feFlood flood-opacity="0" result="BackgroundImageFix"/>
<feBlend mode="normal" in="SourceGraphic" in2="BackgroundImageFix" result="shape"/>
<feTurbulence type="fractalNoise" baseFrequency="0.05000000074505806 0.05000000074505806" numOctaves="3" seed="5856" />
<feDisplacementMap in="shape" scale="2" xChannelSelector="R" yChannelSelector="G" result="displacedImage" width="100%" height="100%" />
<feMerge result="effect1_texture_6_329">
<feMergeNode in="displacedImage"/>
</feMerge>
</filter>
</defs>
</svg>
