<svg width="808" height="406" viewBox="0 0 808 406" fill="none" xmlns="http://www.w3.org/2000/svg">
<path d="M179.456 400.279C151.068 400.279 126.735 397.237 106.457 391.154C86.5851 385.071 71.1742 374.324 60.2243 358.913C49.68 343.096 44.4078 320.385 44.4078 290.78V175.806H0V79.6908H44.4078V0H152.082V79.6908H211.089V175.806H152.082V274.355C152.082 282.061 153.298 288.955 155.732 295.038C158.57 300.716 166.276 303.555 178.848 303.555H207.439V400.279H179.456Z" fill="black" style="fill:black;fill-opacity:1;"/>
<path d="M245.921 400.279V79.6908H340.211L347.511 110.107C355.622 98.3461 364.544 89.8296 374.278 84.5574C384.011 79.2853 393.744 76.0409 403.477 74.8242C413.211 73.6075 422.133 72.9992 430.244 72.9992C437.138 72.9992 443.424 73.202 449.102 73.6076C454.78 73.6076 458.43 73.8103 460.052 74.2159V178.24H439.369C424.363 178.24 410.169 180.267 396.786 184.323C383.808 187.973 373.264 195.273 365.153 206.223C357.447 216.767 353.595 232.786 353.595 254.281V400.279H245.921Z" fill="black" style="fill:black;fill-opacity:1;"/>
<path d="M643.453 405.146C611.82 405.146 583.228 398.86 557.679 386.287C532.534 373.715 512.46 355.263 497.454 330.93C482.449 306.191 474.946 276.18 474.946 240.897C474.946 204.803 482.449 174.387 497.454 149.648C512.865 124.504 533.143 105.443 558.287 92.4656C583.431 79.488 611.211 72.9992 641.628 72.9992C672.855 72.9992 700.838 79.6908 725.577 93.074C750.721 106.457 770.593 125.721 785.193 150.865C800.198 176.009 807.701 206.628 807.701 242.722C807.701 277.6 800.604 307.205 786.409 331.538C772.215 355.871 752.749 374.324 728.01 386.896C703.271 399.062 675.086 405.146 643.453 405.146Z" fill="#DB2D2E" style="fill:#DB2D2E;fill:color(display-p3 0.8588 0.1765 0.1804);fill-opacity:1;"/>
</svg>
